<mxfile host="app.diagrams.net" agent="Mozilla/5.0 (Windows NT 10.0; Win64; x64) AppleWebKit/537.36 (KHTML, like Gecko) Chrome/133.0.0.0 Safari/537.36" version="26.0.12">
  <diagram name="Page-1" id="vm12TD7CnjtOFw0scdIz">
    <mxGraphModel dx="1064" dy="538" grid="1" gridSize="10" guides="1" tooltips="1" connect="1" arrows="1" fold="1" page="1" pageScale="1" pageWidth="827" pageHeight="1169" math="0" shadow="0">
      <root>
        <mxCell id="0" />
        <mxCell id="1" parent="0" />
        <mxCell id="VXw6yIuzix0GLkQL3JZd-1" value="mipi-csi2.c" style="text;html=1;align=center;verticalAlign=middle;resizable=0;points=[];autosize=1;strokeColor=none;fillColor=none;" parent="1" vertex="1">
          <mxGeometry x="590" y="320" width="80" height="30" as="geometry" />
        </mxCell>
        <mxCell id="VXw6yIuzix0GLkQL3JZd-2" value="&lt;font style=&quot;font-size: 11px; color: rgb(153, 153, 153);&quot;&gt;hardware mipi csi:&lt;/font&gt;&lt;div&gt;&lt;font style=&quot;font-size: 11px; color: rgb(153, 153, 153);&quot;&gt;mipi csi没做虚拟化&lt;/font&gt;&lt;/div&gt;" style="text;html=1;align=center;verticalAlign=middle;whiteSpace=wrap;rounded=0;" parent="1" vertex="1">
          <mxGeometry x="540" y="290" width="130" height="30" as="geometry" />
        </mxCell>
        <mxCell id="VXw6yIuzix0GLkQL3JZd-3" value="&lt;font style=&quot;font-size: 11px; color: rgb(153, 153, 153);&quot;&gt;subdev-itf.c&lt;/font&gt;" style="text;html=1;align=center;verticalAlign=middle;resizable=0;points=[];autosize=1;strokeColor=none;fillColor=none;" parent="1" vertex="1">
          <mxGeometry x="880" y="220" width="80" height="30" as="geometry" />
        </mxCell>
        <mxCell id="VXw6yIuzix0GLkQL3JZd-4" value="&lt;font style=&quot;font-size: 11px; color: rgb(153, 153, 153);&quot;&gt;dev.c&lt;/font&gt;" style="text;html=1;align=center;verticalAlign=middle;resizable=0;points=[];autosize=1;strokeColor=none;fillColor=none;" parent="1" vertex="1">
          <mxGeometry x="900" y="200" width="50" height="30" as="geometry" />
        </mxCell>
        <mxCell id="VXw6yIuzix0GLkQL3JZd-5" value="&lt;font style=&quot;font-size: 11px; color: rgb(153, 153, 153);&quot;&gt;virtual captures:&lt;/font&gt;" style="text;html=1;align=center;verticalAlign=middle;whiteSpace=wrap;rounded=0;" parent="1" vertex="1">
          <mxGeometry x="790" y="200" width="110" height="30" as="geometry" />
        </mxCell>
        <mxCell id="VXw6yIuzix0GLkQL3JZd-6" value="&lt;font style=&quot;font-size: 11px; color: rgb(153, 153, 153);&quot;&gt;这个作用? 链接到isp?&lt;/font&gt;" style="text;html=1;align=center;verticalAlign=middle;whiteSpace=wrap;rounded=0;" parent="1" vertex="1">
          <mxGeometry x="780" y="230" width="110" height="30" as="geometry" />
        </mxCell>
        <mxCell id="VXw6yIuzix0GLkQL3JZd-7" value="&lt;font style=&quot;color: rgb(153, 153, 153); font-size: 11px;&quot;&gt;hw.c&lt;/font&gt;" style="text;html=1;align=center;verticalAlign=middle;resizable=0;points=[];autosize=1;strokeColor=none;fillColor=none;" parent="1" vertex="1">
          <mxGeometry x="620" y="52.5" width="50" height="30" as="geometry" />
        </mxCell>
        <mxCell id="VXw6yIuzix0GLkQL3JZd-8" value="&lt;font style=&quot;font-size: 11px; color: rgb(153, 153, 153);&quot;&gt;hardware capture :&lt;/font&gt;" style="text;html=1;align=center;verticalAlign=middle;whiteSpace=wrap;rounded=0;" parent="1" vertex="1">
          <mxGeometry x="575" y="22.5" width="110" height="30" as="geometry" />
        </mxCell>
        <mxCell id="VXw6yIuzix0GLkQL3JZd-25" style="edgeStyle=orthogonalEdgeStyle;rounded=0;orthogonalLoop=1;jettySize=auto;html=1;exitX=0.5;exitY=1;exitDx=0;exitDy=0;entryX=0.5;entryY=0;entryDx=0;entryDy=0;" parent="1" source="VXw6yIuzix0GLkQL3JZd-9" target="VXw6yIuzix0GLkQL3JZd-21" edge="1">
          <mxGeometry relative="1" as="geometry" />
        </mxCell>
        <mxCell id="VXw6yIuzix0GLkQL3JZd-26" style="edgeStyle=orthogonalEdgeStyle;rounded=0;orthogonalLoop=1;jettySize=auto;html=1;exitX=1;exitY=0.5;exitDx=0;exitDy=0;entryX=0;entryY=0.5;entryDx=0;entryDy=0;" parent="1" source="VXw6yIuzix0GLkQL3JZd-9" target="VXw6yIuzix0GLkQL3JZd-11" edge="1">
          <mxGeometry relative="1" as="geometry" />
        </mxCell>
        <mxCell id="VXw6yIuzix0GLkQL3JZd-9" value="&lt;div style=&quot;color: #383a42;background-color: #f5f5f5;font-family: Consolas, &#39;Courier New&#39;, monospace;font-weight: normal;font-size: 14px;line-height: 19px;white-space: pre;&quot;&gt;&lt;div&gt;&lt;span style=&quot;color: #4078f2;&quot;&gt;rk_cif_plat_drv_init&lt;/span&gt;&lt;/div&gt;&lt;/div&gt;" style="text;whiteSpace=wrap;html=1;" parent="1" vertex="1">
          <mxGeometry x="690" y="50" width="160" height="35" as="geometry" />
        </mxCell>
        <mxCell id="VXw6yIuzix0GLkQL3JZd-18" style="edgeStyle=orthogonalEdgeStyle;rounded=0;orthogonalLoop=1;jettySize=auto;html=1;exitX=0.5;exitY=1;exitDx=0;exitDy=0;entryX=0.5;entryY=0;entryDx=0;entryDy=0;" parent="1" source="VXw6yIuzix0GLkQL3JZd-11" target="VXw6yIuzix0GLkQL3JZd-16" edge="1">
          <mxGeometry relative="1" as="geometry" />
        </mxCell>
        <mxCell id="VXw6yIuzix0GLkQL3JZd-11" value="&lt;div style=&quot;color: #383a42;background-color: #f5f5f5;font-family: Consolas, &#39;Courier New&#39;, monospace;font-weight: normal;font-size: 14px;line-height: 19px;white-space: pre;&quot;&gt;&lt;div&gt;&lt;span style=&quot;color: #aca600;&quot;&gt;platform_driver_register&lt;/span&gt;&lt;span style=&quot;color: #383a42;&quot;&gt;(&lt;/span&gt;&lt;span style=&quot;color: #383a42;&quot;&gt;&amp;amp;&lt;/span&gt;&lt;span style=&quot;color: #e45649;&quot;&gt;rkcif_hw_plat_drv&lt;/span&gt;&lt;span style=&quot;color: #383a42;&quot;&gt;);&lt;/span&gt;&lt;/div&gt;&lt;/div&gt;" style="text;whiteSpace=wrap;html=1;" parent="1" vertex="1">
          <mxGeometry x="970" y="50" width="350" height="35" as="geometry" />
        </mxCell>
        <mxCell id="VXw6yIuzix0GLkQL3JZd-14" value="&lt;div style=&quot;color: #383a42;background-color: #f5f5f5;font-family: Consolas, &#39;Courier New&#39;, monospace;font-weight: normal;font-size: 14px;line-height: 19px;white-space: pre;&quot;&gt;&lt;div&gt;&lt;span style=&quot;color: #aca600;&quot;&gt;platform_driver_register&lt;/span&gt;&lt;span style=&quot;color: #383a42;&quot;&gt;(&lt;/span&gt;&lt;span style=&quot;color: #383a42;&quot;&gt;&amp;amp;&lt;/span&gt;&lt;span style=&quot;color: #e45649;&quot;&gt;csi2_driver&lt;/span&gt;&lt;span style=&quot;color: #383a42;&quot;&gt;);&lt;/span&gt;&lt;/div&gt;&lt;/div&gt;" style="text;whiteSpace=wrap;html=1;" parent="1" vertex="1">
          <mxGeometry x="990" y="320" width="310" height="30" as="geometry" />
        </mxCell>
        <mxCell id="VXw6yIuzix0GLkQL3JZd-20" style="edgeStyle=orthogonalEdgeStyle;rounded=0;orthogonalLoop=1;jettySize=auto;html=1;exitX=0.5;exitY=1;exitDx=0;exitDy=0;entryX=0.5;entryY=0;entryDx=0;entryDy=0;" parent="1" source="VXw6yIuzix0GLkQL3JZd-16" target="VXw6yIuzix0GLkQL3JZd-19" edge="1">
          <mxGeometry relative="1" as="geometry" />
        </mxCell>
        <mxCell id="VXw6yIuzix0GLkQL3JZd-16" value="&lt;div style=&quot;color: #383a42;background-color: #f5f5f5;font-family: Consolas, &#39;Courier New&#39;, monospace;font-weight: normal;font-size: 14px;line-height: 19px;white-space: pre;&quot;&gt;&lt;div&gt;&lt;span style=&quot;color: #4078f2;&quot;&gt;rkcif_plat_hw_probe&lt;/span&gt;&lt;/div&gt;&lt;/div&gt;" style="text;whiteSpace=wrap;html=1;" parent="1" vertex="1">
          <mxGeometry x="1067.5" y="130" width="155" height="30" as="geometry" />
        </mxCell>
        <mxCell id="VXw6yIuzix0GLkQL3JZd-19" value="&lt;div style=&quot;color: rgb(56, 58, 66); background-color: rgb(245, 245, 245); font-family: Consolas, &amp;quot;Courier New&amp;quot;, monospace; font-weight: normal; font-size: 14px; line-height: 19px; white-space: pre;&quot;&gt;&lt;div&gt;&lt;span style=&quot;color: rgb(172, 166, 0);&quot;&gt;platform_driver_register&lt;/span&gt;&lt;span style=&quot;color: rgb(56, 58, 66);&quot;&gt;(&lt;/span&gt;&lt;span style=&quot;color: rgb(56, 58, 66);&quot;&gt;&amp;amp;&lt;/span&gt;&lt;span style=&quot;color: rgb(228, 86, 73);&quot;&gt;rkcif_plat_drv&lt;/span&gt;&lt;span style=&quot;color: rgb(56, 58, 66);&quot;&gt;);&lt;/span&gt;&lt;/div&gt;&lt;div&gt;&lt;span style=&quot;color: rgb(172, 166, 0);&quot;&gt;platform_driver_register&lt;/span&gt;&lt;span style=&quot;color: rgb(56, 58, 66);&quot;&gt;(&lt;/span&gt;&lt;span style=&quot;color: rgb(56, 58, 66);&quot;&gt;&amp;amp;&lt;/span&gt;&lt;span style=&quot;color: rgb(228, 86, 73);&quot;&gt;rkcif_subdev_driver&lt;/span&gt;&lt;span style=&quot;color: rgb(56, 58, 66);&quot;&gt;);&lt;/span&gt;&lt;/div&gt;&lt;/div&gt;" style="text;whiteSpace=wrap;html=1;" parent="1" vertex="1">
          <mxGeometry x="960" y="200" width="370" height="60" as="geometry" />
        </mxCell>
        <mxCell id="VXw6yIuzix0GLkQL3JZd-27" value="" style="edgeStyle=orthogonalEdgeStyle;rounded=0;orthogonalLoop=1;jettySize=auto;html=1;" parent="1" source="VXw6yIuzix0GLkQL3JZd-21" target="VXw6yIuzix0GLkQL3JZd-14" edge="1">
          <mxGeometry relative="1" as="geometry" />
        </mxCell>
        <mxCell id="VXw6yIuzix0GLkQL3JZd-21" value="&lt;div style=&quot;color: #383a42;background-color: #f5f5f5;font-family: Consolas, &#39;Courier New&#39;, monospace;font-weight: normal;font-size: 14px;line-height: 19px;white-space: pre;&quot;&gt;&lt;div&gt;&lt;span style=&quot;color: #4078f2;&quot;&gt;rkcif_csi2_plat_drv_init&lt;/span&gt;&lt;/div&gt;&lt;/div&gt;" style="text;whiteSpace=wrap;html=1;" parent="1" vertex="1">
          <mxGeometry x="675" y="320" width="190" height="30" as="geometry" />
        </mxCell>
      </root>
    </mxGraphModel>
  </diagram>
</mxfile>
